{
    "asset" : {
        "generator" : "Khronos glTF Blender I/O v1.3.48",
        "version" : "2.0"
    },
    "scene" : 0,
    "scenes" : [
        {
            "name" : "Scene",
            "nodes" : [
                0,
                1,
                3,
                4
            ]
        }
    ],
    "nodes" : [
        {
            "name" : "Light",
            "rotation" : [
                0.16907575726509094,
                0.7558803558349609,
                -0.27217137813568115,
                0.570947527885437
            ],
            "translation" : [
                1.7020703554153442,
                4.840970993041992,
                0.021939754486083984
            ]
        },
        {
            "name" : "Camera",
            "rotation" : [
                0.2816781997680664,
                0.6782916784286499,
                -0.31890198588371277,
                0.599065363407135
            ],
            "scale" : [
                0.45442938804626465,
                0.4544294476509094,
                0.45442938804626465
            ],
            "translation" : [
                0.30315837264060974,
                0.2746918201446533,
                -0.04582794010639191
            ]
        },
        {
            "mesh" : 0,
            "name" : "Icing"
        },
        {
            "children" : [
                2
            ],
            "mesh" : 1,
            "name" : "Donut",
            "translation" : [
                0,
                0.040069375187158585,
                0
            ]
        },
        {
            "mesh" : 2,
            "name" : "Plane"
        }
    ],
    "materials" : [
        {
            "doubleSided" : true,
            "emissiveFactor" : [
                0,
                0,
                0
            ],
            "name" : "Material.001",
            "pbrMetallicRoughness" : {
                "baseColorFactor" : [
                    0.8000000715255737,
                    0.119257353246212,
                    0.5165677070617676,
                    1
                ],
                "metallicFactor" : 0,
                "roughnessFactor" : 0.3499999940395355
            }
        },
        {
            "doubleSided" : true,
            "emissiveFactor" : [
                0,
                0,
                0
            ],
            "name" : "Material.002",
            "pbrMetallicRoughness" : {
                "baseColorFactor" : [
                    0.8000000715255737,
                    0.5021889805793762,
                    0.3102474808692932,
                    1
                ],
                "metallicFactor" : 0,
                "roughnessFactor" : 0.5
            }
        },
        {
            "doubleSided" : true,
            "emissiveFactor" : [
                0,
                0,
                0
            ],
            "name" : "Material",
            "pbrMetallicRoughness" : {
                "baseColorFactor" : [
                    0.00029827223625034094,
                    0,
                    0.8000000715255737,
                    1
                ],
                "metallicFactor" : 0,
                "roughnessFactor" : 0.5
            }
        }
    ],
    "meshes" : [
        {
            "name" : "Torus.001",
            "primitives" : [
                {
                    "attributes" : {
                        "POSITION" : 0,
                        "NORMAL" : 1,
                        "TEXCOORD_0" : 2
                    },
                    "indices" : 3,
                    "material" : 0
                }
            ]
        },
        {
            "name" : "Torus",
            "primitives" : [
                {
                    "attributes" : {
                        "POSITION" : 4,
                        "NORMAL" : 5,
                        "TEXCOORD_0" : 6
                    },
                    "indices" : 7,
                    "material" : 1
                }
            ]
        },
        {
            "name" : "Plane",
            "primitives" : [
                {
                    "attributes" : {
                        "POSITION" : 8,
                        "NORMAL" : 9,
                        "TEXCOORD_0" : 10
                    },
                    "indices" : 11,
                    "material" : 2
                }
            ]
        }
    ],
    "accessors" : [
        {
            "bufferView" : 0,
            "componentType" : 5126,
            "count" : 18687,
            "max" : [
                0.0729481428861618,
                0.03176494315266609,
                0.06866972893476486
            ],
            "min" : [
                -0.07032377272844315,
                -0.00047301739687100053,
                -0.07549829035997391
            ],
            "type" : "VEC3"
        },
        {
            "bufferView" : 1,
            "componentType" : 5126,
            "count" : 18687,
            "type" : "VEC3"
        },
        {
            "bufferView" : 2,
            "componentType" : 5126,
            "count" : 18687,
            "type" : "VEC2"
        },
        {
            "bufferView" : 3,
            "componentType" : 5123,
            "count" : 107520,
            "type" : "SCALAR"
        },
        {
            "bufferView" : 4,
            "componentType" : 5126,
            "count" : 21825,
            "max" : [
                0.07547792047262192,
                0.030268946662545204,
                0.07005029171705246
            ],
            "min" : [
                -0.06951361894607544,
                -0.02919834665954113,
                -0.07341151684522629
            ],
            "type" : "VEC3"
        },
        {
            "bufferView" : 5,
            "componentType" : 5126,
            "count" : 21825,
            "type" : "VEC3"
        },
        {
            "bufferView" : 6,
            "componentType" : 5126,
            "count" : 21825,
            "type" : "VEC2"
        },
        {
            "bufferView" : 7,
            "componentType" : 5123,
            "count" : 129024,
            "type" : "SCALAR"
        },
        {
            "bufferView" : 8,
            "componentType" : 5126,
            "count" : 4,
            "max" : [
                1,
                0,
                1
            ],
            "min" : [
                -1,
                0,
                -1
            ],
            "type" : "VEC3"
        },
        {
            "bufferView" : 9,
            "componentType" : 5126,
            "count" : 4,
            "type" : "VEC3"
        },
        {
            "bufferView" : 10,
            "componentType" : 5126,
            "count" : 4,
            "type" : "VEC2"
        },
        {
            "bufferView" : 11,
            "componentType" : 5123,
            "count" : 6,
            "type" : "SCALAR"
        }
    ],
    "bufferViews" : [
        {
            "buffer" : 0,
            "byteLength" : 224244,
            "byteOffset" : 0
        },
        {
            "buffer" : 0,
            "byteLength" : 224244,
            "byteOffset" : 224244
        },
        {
            "buffer" : 0,
            "byteLength" : 149496,
            "byteOffset" : 448488
        },
        {
            "buffer" : 0,
            "byteLength" : 215040,
            "byteOffset" : 597984
        },
        {
            "buffer" : 0,
            "byteLength" : 261900,
            "byteOffset" : 813024
        },
        {
            "buffer" : 0,
            "byteLength" : 261900,
            "byteOffset" : 1074924
        },
        {
            "buffer" : 0,
            "byteLength" : 174600,
            "byteOffset" : 1336824
        },
        {
            "buffer" : 0,
            "byteLength" : 258048,
            "byteOffset" : 1511424
        },
        {
            "buffer" : 0,
            "byteLength" : 48,
            "byteOffset" : 1769472
        },
        {
            "buffer" : 0,
            "byteLength" : 48,
            "byteOffset" : 1769520
        },
        {
            "buffer" : 0,
            "byteLength" : 32,
            "byteOffset" : 1769568
        },
        {
            "buffer" : 0,
            "byteLength" : 12,
            "byteOffset" : 1769600
        }
    ],
    "buffers" : [
        {
            "byteLength" : 1769612,
            "uri" : "data:application/octet-stream;base64,"
        }
    ]
}
